<?xml version="1.0" encoding="UTF-8"?><!DOCTYPE svg PUBLIC "-//W3C//DTD SVG 1.1//EN" "http://www.w3.org/Graphics/SVG/1.1/DTD/svg11.dtd"><svg xmlns="http://www.w3.org/2000/svg" xmlns:xlink="http://www.w3.org/1999/xlink"><style>svg>text{font:16px Helvetica,Arial,sans-serif;text-anchor:middle}</style><text x="475" y="30">7 elements</text><defs><linearGradient id="cb-a" gradientUnits="userSpaceOnUse" x1="0" y1="100%" x2="100%" y2="-73%"><stop offset="0" stop-color="#219947"/><stop offset=".45" stop-color="#0290ab"/><stop offset=".7" stop-color="#06689c"/><stop offset="1" stop-color="#002555"/></linearGradient><linearGradient id="jcb-a" gradientUnits="userSpaceOnUse" x1="75.414" y1="43.335" x2="106.25" y2="43.335"><stop offset="0" stop-color="#007b40"/><stop offset="1" stop-color="#55b330"/></linearGradient><linearGradient id="jcb-c" gradientUnits="userSpaceOnUse" x1="40.833" y1="43.335" x2="71.666" y2="43.335"><stop offset="0" stop-color="#6e2b2f"/><stop offset="1" stop-color="#e30138"/></linearGradient><linearGradient id="jcb-b" gradientUnits="userSpaceOnUse" x1="6.249" y1="43.335" x2="37.082" y2="43.335"><stop offset="0" stop-color="#1d2970"/><stop offset="1" stop-color="#006dba"/></linearGradient></defs><symbol id="amex-map" viewBox="0 0 1000 997.517"><path d="M0 0h997.517v538.49l-49.375 77.147 49.375 68.661v313.219H0v-507.63l30.859-35.488L0 420.454z" fill="#016fd0"/><path d="M193.64 695.099v-156.61h165.82l17.791 23.193 18.38-23.193h601.886V684.3s-15.74 10.643-33.945 10.8H630.295l-20.058-24.687v24.687h-65.73v-42.142s-8.979 5.883-28.39 5.883h-22.373v36.259h-99.52l-17.766-23.69-18.038 23.69zM0 420.454l37.393-87.177h64.668l21.22 48.833v-48.833h80.388l12.633 35.295 12.247-35.295h360.858v17.744s18.97-17.744 50.146-17.744l117.085.41 20.854 48.193v-48.603h67.273l18.515 27.684v-27.684h67.89v156.61h-67.89l-17.744-27.774v27.774h-98.838l-9.94-24.688h-26.57l-9.779 24.688h-67.028c-26.826 0-43.974-17.382-43.974-17.382v17.382H488.343l-20.058-24.688v24.688H92.481l-9.933-24.688H56.06L46.2 489.887H0z" fill="#fff"/><path d="M50.628 352.584L.193 469.848h32.836l9.306-23.482h54.1l9.257 23.482h33.56L88.863 352.584H50.628zm18.66 27.29l16.49 41.034H52.75l16.538-41.033zM142.723 469.828V352.564l46.661.173 27.14 75.605 26.49-75.778h46.289v117.264h-29.316v-86.405l-31.076 86.405h-25.71l-31.162-86.405v86.405zM309.361 469.828V352.564h95.663v26.23h-66.038v20.059h64.495v24.687h-64.495v20.83h66.038v25.458zM421.997 352.584v117.264h29.316v-41.66h12.343l35.15 41.66h35.826l-38.574-43.202c15.831-1.336 32.161-14.924 32.161-36.019 0-24.676-19.368-38.043-40.984-38.043h-65.238zm29.316 26.23h33.51c8.04 0 13.887 6.288 13.887 12.344 0 7.79-7.577 12.343-13.452 12.343h-33.945v-24.687zM570.12 469.828h-29.933V352.564h29.933zM641.095 469.828h-6.46c-31.262 0-50.243-24.629-50.243-58.15 0-34.348 18.768-59.114 58.246-59.114h32.402v27.773h-33.586c-16.026 0-27.36 12.507-27.36 31.63 0 22.71 12.96 32.248 31.63 32.248h7.715zM704.887 352.584l-50.435 117.264h32.836l9.305-23.482h54.1l9.258 23.482h33.559l-50.387-117.264h-38.236zm18.66 27.29l16.49 41.034h-33.029l16.539-41.033zM796.933 469.828V352.564h37.272l47.59 73.676v-73.676h29.317v117.264h-36.067l-48.796-75.604v75.604zM213.699 675.04V557.777h95.662v26.23h-66.038v20.059h64.495v24.687h-64.495v20.83h66.038v25.459zM682.447 675.04V557.777h95.662v26.23h-66.038v20.059h64.187v24.687H712.07v20.83h66.038v25.459zM313.074 675.04l46.578-57.908-47.687-59.356H348.9l28.4 36.694 28.497-36.694h35.488l-47.06 58.633 46.663 58.632H403.96l-27.576-36.115-26.905 36.115zM444.37 557.796V675.06h30.087v-37.03h30.859c26.111 0 45.903-13.853 45.903-40.792 0-22.317-15.523-39.442-42.094-39.442H444.37zm30.087 26.52h32.498c8.436 0 14.465 5.17 14.465 13.5 0 7.827-5.999 13.501-14.561 13.501h-32.402v-27.001zM563.948 557.776v117.265h29.316v-41.66h12.344l35.15 41.66h35.825l-38.573-43.203c15.83-1.336 32.16-14.923 32.16-36.018 0-24.677-19.368-38.044-40.984-38.044h-65.238zm29.316 26.23h33.511c8.039 0 13.887 6.289 13.887 12.344 0 7.79-7.577 12.344-13.453 12.344h-33.945v-24.687zM791.687 675.04v-25.458h58.671c8.681 0 12.44-4.691 12.44-9.836 0-4.93-3.747-9.914-12.44-9.914h-26.513c-23.045 0-35.88-14.04-35.88-35.121 0-18.803 11.753-36.935 46-36.935h57.088l-12.343 26.385h-49.375c-9.438 0-12.343 4.952-12.343 9.682 0 4.861 3.59 10.222 10.8 10.222h27.773c25.69 0 36.838 14.572 36.838 33.655 0 20.517-12.422 37.32-38.236 37.32zM899.284 675.04v-25.458h58.67c8.682 0 12.44-4.691 12.44-9.836 0-4.93-3.746-9.914-12.44-9.914h-26.512c-23.046 0-35.88-14.04-35.88-35.121 0-18.803 11.753-36.935 45.999-36.935h57.089l-12.344 26.385h-49.374c-9.438 0-12.344 4.952-12.344 9.682 0 4.861 3.59 10.222 10.801 10.222h27.773c25.69 0 36.838 14.572 36.838 33.655 0 20.517-12.422 37.32-38.236 37.32z" fill="#016fd0"/></symbol><symbol id="cb-map" viewBox="0 0 538.32 371.72"><path fill="url(#cb-a)" d="M0 0h538.32v371.72H0z"/><g fill="#FFF"><path d="M54.98 189.01c0-57.35 37.21-103.83 112.69-103.83 72.23 0 109.82 43.08 112.53 97.45 0 .05-109.26 0-109.26 0v12.16s109.3-.02 109.3 0c-2.4 54.66-39.17 98.06-112.56 98.06-76.24 0-112.7-46.49-112.7-103.84zM440.64 287.23H292.51v-92.44h144.06c32.55 0 48.25 21.6 48.25 48.25 0 24.41-23.33 44.21-44.18 44.19zM440.64 182.63H292.51V90.19h144.06c32.55 0 48.25 21.6 48.25 48.25 0 24.4-23.33 44.2-44.18 44.19z"/></g></symbol><symbol id="diners-map" viewBox="0 0 636 504"><path fill="#0079BE" d="M372.69 504c137.75.659 263.48-112.341 263.48-249.81C636.17 103.86 510.44-.05 372.69 0H254.14C114.74-.05 0 103.891 0 254.19 0 391.689 114.74 504.66 254.14 504h118.55z"/><path fill="#FFF" d="M254.701 20.83c-127.38.04-230.6 103.29-230.63 230.721.03 127.409 103.249 230.649 230.63 230.689 127.41-.04 230.651-103.28 230.669-230.689C485.351 124.12 382.111 20.87 254.701 20.83zm-146.19 230.721c.12-62.27 39.01-115.37 93.85-136.471v272.91c-54.84-21.089-93.731-74.16-93.85-136.439zm198.51 136.499V115.071c54.86 21.05 93.81 74.18 93.91 136.48-.1 62.319-39.05 115.409-93.91 136.499z"/></symbol><symbol id="jcb-map" viewBox="0 0 112.498 86.669"><path fill="url(#jcb-a)" d="M81.526 44.854H88.826a4.14 4.14 0 01.242.014 6.687 6.687 0 01.482.054l.073.014.048.011a2.957 2.957 0 01.483.154 3.303 3.303 0 01.723.412 3.246 3.246 0 011.086 1.462 3.467 3.467 0 01.206 1.176 3.486 3.486 0 01-.206 1.18 3.246 3.246 0 01-.724 1.145 3.232 3.232 0 01-1.568.88l-.048.01a1.536 1.536 0 01-.193.033 5.12 5.12 0 01-.483.045 4.487 4.487 0 01-.12.004l-.065.001h-7.236zm9.714-7.464c.048.222.074.456.074.703 0 .246-.026.48-.074.702a3.012 3.012 0 01-.362.905 2.923 2.923 0 01-1.448 1.203 3.227 3.227 0 01-.603.171l-.03.005a4.655 4.655 0 01-.453.047 5.141 5.141 0 01-.24.01h-6.578V35.05h6.628l.07.002a5.152 5.152 0 01.362.027 7.072 7.072 0 01.212.024l.03.005a3.026 3.026 0 01.482.127 3.232 3.232 0 01.603.287 2.958 2.958 0 01.965.963 2.867 2.867 0 01.362.905zM106.2 5.834h.05v62.502a12.644 12.644 0 01-.653 3.996 12.799 12.799 0 01-.845 1.94 12.374 12.374 0 01-.603 1 12.48 12.48 0 01-.845 1.122l-.12.142a12.992 12.992 0 01-.362.398l-.12.125c-.041.041-.08.083-.122.123l-.12.118-.12.116a12.8 12.8 0 01-.725.634l-.12.097-.121.094-.12.092-.121.09-.121.087-.12.085-.121.083c-.04.028-.08.054-.121.08-.04.028-.08.054-.12.08a11.682 11.682 0 01-.363.226l-.12.071-.12.07-.122.067-.12.067-.12.064c-.041.02-.081.042-.122.063l-.12.06-.12.06-.121.058-.121.056-.12.055-.121.053-.121.052-.12.05-.121.049-.121.046-.12.046-.121.044-.121.043-.12.042-.121.04-.121.038-.12.038-.121.036-.121.035-.12.033-.121.032-.12.03-.122.03-.12.029-.12.026-.122.026-.12.025-.12.023-.121.022-.121.02-.12.02-.121.018-.121.017-.12.017-.121.014-.121.014-.12.012-.121.011c-.04.004-.08.008-.121.01l-.12.01-.121.007-.121.007-.12.005-.121.004-.121.003-.12.002-.121.002H75.415V55.352H94.858l.12-.002.12-.002.122-.003.12-.005.12-.006.121-.007.121-.009.12-.01.121-.01.121-.012.12-.014.121-.014.121-.016.12-.018.121-.018.121-.02.12-.022.121-.023.121-.025.12-.026.121-.028.121-.03a9.242 9.242 0 00.483-.133l.12-.037a7.734 7.734 0 00.362-.125l.12-.046c.041-.015.081-.03.121-.047l.121-.05a7.677 7.677 0 00.724-.347 7.353 7.353 0 00.965-.63 6.788 6.788 0 00.483-.417 5.872 5.872 0 00.965-1.203 5.353 5.353 0 00.603-1.458 6.044 6.044 0 00.12-2.216 5.31 5.31 0 00-.36-1.317 4.993 4.993 0 00-.484-.883 5.315 5.315 0 00-.723-.86 5.938 5.938 0 00-.604-.517 7.203 7.203 0 00-1.689-.948l-.12-.048a9.12 9.12 0 00-.121-.047l-.12-.044a10.68 10.68 0 00-.483-.159l-.121-.035-.12-.034a9.275 9.275 0 00-.483-.119 8.869 8.869 0 00-.242-.05l-.12-.023-.12-.022a9.198 9.198 0 00-.122-.02l-.12-.02a9.47 9.47 0 00-.12-.017l-.122-.016-.12-.016-.12-.013-.121-.013-.121-.011-.12-.01-.112-.009v-.144l.111-.018.12-.02.122-.02.12-.024.12-.025.121-.026.121-.028.12-.03a8.487 8.487 0 001.207-.41 6.981 6.981 0 001.207-.679 6.128 6.128 0 00.724-.607 5.793 5.793 0 00.482-.543 5.347 5.347 0 00.845-1.587 5.327 5.327 0 00.241-1.14 5.706 5.706 0 000-1.187 5.553 5.553 0 00-.241-1.158 5.073 5.073 0 00-.483-1.044 5.03 5.03 0 00-.965-1.151 5.826 5.826 0 00-.965-.704 6.772 6.772 0 00-.724-.373 8.259 8.259 0 00-.965-.358l-.12-.037a8.884 8.884 0 00-.242-.065l-.12-.03a8.862 8.862 0 00-.242-.057l-.12-.026-.121-.024-.121-.023-.12-.02c-.04-.008-.081-.014-.121-.02l-.121-.02-.12-.016-.121-.016-.121-.014-.12-.013-.121-.013-.121-.01-.12-.01-.121-.008-.121-.007-.048-.003-.073-.004-.12-.007-.121-.007-.12-.006-.121-.006-.12-.005-.122-.005-.12-.003-.12-.003-.122-.002H75.415V18.335a12.555 12.555 0 01.863-4.574 12.54 12.54 0 011.086-2.132 11.959 11.959 0 01.241-.364l.12-.173a13.199 13.199 0 01.242-.327l.12-.157.121-.15.121-.146.12-.142.121-.137.121-.135a13.396 13.396 0 01.241-.256l.12-.123.122-.12.12-.117.12-.112.122-.111.12-.107a13.38 13.38 0 01.483-.405l.12-.094.121-.093a13.046 13.046 0 01.241-.178l.121-.086.12-.083.121-.082.121-.08.12-.077.121-.076.121-.074.12-.071.121-.071.121-.068.12-.067.121-.064.12-.064.122-.06.12-.06.12-.059.122-.056.12-.056.12-.053.122-.053.12-.05.12-.049.121-.047.121-.046.12-.045.121-.043c.04-.014.08-.029.121-.042l.12-.04.121-.04.121-.037.12-.036.121-.036c.04-.012.08-.022.121-.033l.12-.033.121-.031.121-.03.12-.029.121-.026.12-.027.122-.025.12-.023.12-.023.122-.02.12-.02.12-.02.121-.016.121-.017.12-.014.121-.014.121-.014.12-.01.121-.011.121-.01.12-.007.121-.007c.04-.003.08-.004.121-.005l.12-.005.121-.004.121-.001.12-.002H106.2z"/><path fill="url(#jcb-b)" d="M6.508 49.33a40.676 40.676 0 01-.259-.123V18.335a12.553 12.553 0 01.74-4.247 12.55 12.55 0 01.603-1.394 12.042 12.042 0 01.482-.865 12.729 12.729 0 01.361-.557l.12-.174.121-.165.12-.161.12-.157.121-.15a12.006 12.006 0 01.241-.288l.12-.137.121-.135.12-.13a11.994 11.994 0 01.241-.25l.12-.118c.041-.04.08-.08.121-.118l.12-.112c.04-.037.08-.075.121-.111l.12-.107.121-.106.12-.102a11.597 11.597 0 01.603-.474l.12-.088a11.426 11.426 0 01.482-.33l.12-.079.12-.075.121-.074.12-.072.121-.07c.04-.024.08-.046.12-.068l.121-.067.12-.065.12-.063.121-.061.12-.06.121-.059.12-.056.121-.056.12-.053.12-.053.121-.05.12-.049.121-.048.12-.045.121-.046.12-.042c.04-.015.08-.03.121-.043l.12-.04.12-.04.121-.038.12-.035c.04-.012.08-.025.121-.036l.12-.034.121-.032.12-.032.12-.03.121-.029.12-.026.121-.027.12-.025.121-.023.12-.023.121-.021.12-.02.12-.02.121-.016.12-.017.121-.015.12-.014.121-.014.12-.01.121-.011.12-.01.12-.007.121-.008.12-.006.121-.004.12-.005.121-.001.12-.002H37.081v62.502a12.626 12.626 0 01-.463 3.382 12.526 12.526 0 01-1.325 3.064 12.12 12.12 0 01-.482.738 12.24 12.24 0 01-.481.64l-.12.148-.121.143-.12.139-.121.135-.12.13-.121.129a12.736 12.736 0 01-.361.362l-.12.113-.121.113-.12.107-.121.107-.12.102-.121.101-.12.098-.12.096-.121.092-.12.092-.121.088-.12.087-.121.083-.12.084-.12.079-.121.08-.12.074-.121.075-.12.072-.121.071-.12.069a10.881 10.881 0 01-.241.132l-.12.064-.121.062-.12.06-.121.06-.12.056-.121.056-.12.054-.121.052-.12.051-.12.05-.121.049-.12.045-.121.046-.12.043-.121.043-.12.041-.12.04-.121.038-.12.036-.121.036-.12.034c-.04.012-.08.022-.121.033l-.12.033-.121.029-.12.03-.12.027-.121.026-.12.027-.121.023-.12.023-.121.021-.12.02-.12.02c-.04.007-.081.012-.121.018l-.12.016-.121.016-.12.014-.121.014-.12.012-.121.01c-.04.004-.08.008-.12.01-.04.004-.08.006-.12.008l-.121.008-.12.006-.121.005-.12.005-.121.002-.12.001-.112.002H6.249V54.492l.26.067.12.03.12.03.12.029.12.028.121.028.12.028.121.027.12.027.121.026.12.026.12.026.121.025.12.025.121.025.12.024.121.025.12.023.121.024.12.023.12.023.121.022.12.023.121.022.12.021.121.022.12.021.121.02.12.021.12.02.121.02.12.02.121.02.12.02.121.018.12.019.12.018.121.019.12.017.121.018.12.017.121.018.12.016.121.017.12.016.12.016.121.016.12.016.121.015.12.015.121.015.12.014.121.014.12.014.12.014.121.014.12.013.121.013.12.013.121.012.12.012.12.012.121.012.12.011.121.011.12.011.121.01.12.011.121.01.12.01.12.01.121.009.12.009.121.009.12.008.121.009.12.007.12.008.121.008.12.007.121.007.12.006.121.007.12.006.121.006.12.005.12.006.121.005.12.005.121.004.12.004.121.004.12.004.121.003.12.003.12.003.121.003.12.002.121.002.12.001.121.002.12.001h.12l.121.001h.361l.121-.001h.12l.121-.002.12-.002.12-.002.121-.002.12-.002.121-.003.12-.004.121-.004.12-.004.121-.004.12-.005.12-.005.121-.006.12-.005.121-.007.12-.006.121-.007.12-.007.12-.008.121-.01.12-.008.121-.008.12-.01.121-.01.12-.01.121-.011.12-.012.12-.012.121-.012.12-.012.121-.014.12-.014.121-.014.12-.014.12-.016.121-.016.12-.016.121-.017.12-.018.121-.018.12-.018.121-.019.12-.02.12-.02.121-.02.12-.023.121-.023.12-.022.121-.024.12-.025.121-.024.12-.026c.041-.008.08-.018.12-.027l.121-.027.12-.027.121-.03.12-.029.121-.03.12-.031.12-.032.121-.033c.04-.01.08-.022.12-.034l.121-.035.12-.035.121-.037.12-.037.121-.038.12-.04.12-.041.121-.04.12-.045.121-.044.12-.044.121-.047.12-.047.121-.05.12-.05.12-.05.121-.055.12-.054.121-.056.12-.058.121-.058.12-.062.12-.062c.042-.021.081-.043.121-.065a11.398 11.398 0 00.362-.205l.12-.072.12-.076.121-.076.12-.08.12-.081.121-.086.12-.087.121-.09a8.915 8.915 0 00.361-.292l.121-.104.12-.109.12-.111a7.902 7.902 0 00.242-.24l.12-.126c.041-.044.08-.089.12-.134a7.785 7.785 0 00.723-.95 7.71 7.71 0 00.602-1.124 8.405 8.405 0 00.482-1.435 9.838 9.838 0 00.241-1.43c.04-.408.06-.823.06-1.244V31.316H23.76V45.82c0 .227-.01.45-.03.67a6.94 6.94 0 01-.24 1.296 6.152 6.152 0 01-.361.94 5.536 5.536 0 01-.723 1.117 5.436 5.436 0 01-1.325 1.145 5.738 5.738 0 01-.602.327 6.32 6.32 0 01-1.084.4l-.12.032a7.311 7.311 0 01-.602.13l-.121.02-.12.019a8.958 8.958 0 01-.241.031l-.12.014-.121.01c-.04.005-.08.008-.12.011a9.22 9.22 0 01-.241.016l-.12.005-.121.004-.12.003-.121.001h-.241l-.12-.002-.121-.003-.12-.003-.12-.004-.121-.005-.12-.005-.121-.006-.12-.008-.121-.008-.12-.008-.12-.01-.121-.01-.12-.01-.121-.012-.12-.012-.121-.013-.12-.014-.121-.014-.12-.016-.12-.016-.121-.016-.12-.018-.121-.018-.12-.019-.121-.02-.12-.02-.121-.02-.12-.022-.12-.023-.121-.023-.12-.023-.121-.025-.12-.025-.121-.026-.12-.026-.12-.027-.121-.028-.12-.028-.121-.03-.12-.03-.121-.03-.12-.031-.121-.032-.12-.032-.12-.033-.121-.034-.12-.034-.121-.035-.12-.036-.121-.036-.12-.037-.12-.038-.121-.038-.12-.039-.121-.039-.12-.04-.121-.04-.12-.042-.121-.042-.12-.042-.12-.043-.121-.044-.12-.044-.121-.045-.12-.045-.121-.046-.12-.047-.121-.047-.12-.048-.12-.048-.121-.049-.12-.05-.121-.049-.12-.05-.121-.052-.12-.051-.12-.052-.121-.053-.12-.053-.121-.054-.12-.054-.121-.055-.12-.056-.121-.056-.12-.056-.12-.057z"/><path fill="url(#jcb-c)" d="M41.091 34.485c-.088.071-.174.143-.258.215V18.335a12.556 12.556 0 01.74-4.246 12.193 12.193 0 011.084-2.259 11.956 11.956 0 01.361-.557l.12-.174.121-.165.12-.16.121-.158.12-.15a12.155 12.155 0 01.241-.288l.12-.137.121-.135a12.271 12.271 0 01.241-.256l.12-.123.121-.119.12-.118.12-.112c.04-.037.08-.075.121-.111l.12-.107.121-.106.12-.102a14.522 14.522 0 01.482-.384 13.017 13.017 0 01.723-.509l.12-.078.121-.075.12-.075.121-.071.12-.071.12-.067.121-.068.12-.064.121-.064.12-.06.121-.06.12-.06.121-.056.12-.056.12-.052.121-.053.12-.05.121-.05.12-.047.121-.046.12-.046.121-.042.12-.042.12-.04.121-.04.12-.038c.04-.013.081-.024.121-.036l.12-.036.121-.033.12-.033.121-.032.12-.029.12-.03.121-.026.12-.027.121-.025.12-.023.121-.023.12-.02.121-.02.12-.02.12-.017.121-.017.12-.015.121-.014.12-.014.121-.01.12-.011.121-.01.12-.007.12-.008.121-.006.12-.004.121-.005.12-.001.121-.002H71.666v62.502a12.613 12.613 0 01-.463 3.382 12.355 12.355 0 01-1.084 2.645 12.114 12.114 0 01-.482.8l-.12.183a13.079 13.079 0 01-.603.813l-.12.149-.12.142-.121.139-.12.136-.121.13-.12.128a12.454 12.454 0 01-.361.362l-.121.114-.12.112-.121.108-.12.107-.121.102-.12.101-.121.097-.12.096-.12.093-.121.091-.12.088c-.04.03-.08.059-.121.087l-.12.084-.121.083-.12.08-.121.079-.12.075-.12.075-.121.072c-.04.024-.08.048-.12.07l-.121.07-.12.067-.121.065-.12.064-.121.062-.12.06-.12.06-.121.056-.12.056-.121.053-.12.053-.121.051-.12.05-.121.048-.12.046-.121.046-.12.043-.12.043-.121.04-.12.04c-.041.013-.08.027-.121.039l-.12.036-.121.036-.12.034-.121.033-.12.032-.12.03-.121.03-.12.027-.121.026-.12.026c-.04.009-.081.016-.121.024l-.12.023-.121.021-.12.02-.12.02-.121.018-.12.016-.121.016-.12.014-.121.014-.12.012-.121.01c-.04.004-.08.008-.12.01-.04.004-.08.006-.12.008l-.121.008-.12.007-.121.004-.12.005-.121.002-.12.002H40.831v-28.86a11.597 11.597 0 00.5.404l.12.091.121.089a12.362 12.362 0 00.24.171l.121.083.12.08.121.078.12.077.121.075.12.073.121.072.12.07.12.068.121.067.12.065.121.064.12.062.121.061.12.06.121.058.12.058.12.056.121.055.12.053.121.053.12.051.121.05.12.05.12.048.121.047.12.046.121.046.12.043.121.044.12.042.121.042.12.04c.04.014.08.028.12.04l.121.04.12.038.121.037.12.037.121.035.12.036.121.034.12.034.121.032.12.032.12.032.121.03.12.031.121.03.12.028.121.028.12.028.121.027.12.026.12.026.121.025.12.025.121.023.12.024.121.022.12.023.121.022.12.02.12.021.121.02.12.02.121.02.12.018.121.018.12.018.121.017.12.017.12.016.121.016.12.015.121.015.12.014.121.014.12.014.121.013.12.013.12.012.121.012.12.011.121.012.12.01.121.01.12.01.121.01.12.01.12.008.121.008.12.008.121.008.12.007.121.007.12.007.121.006.12.006.12.006.121.005.12.005.121.005.12.004.121.004.12.004.121.003.12.003.12.003.121.002.12.002.121.002.12.001.121.001.12.001h.121l.12.001h.361l.121-.001.12-.001.121-.002.12-.002.121-.001.12-.003.121-.002.12-.003.12-.003.121-.003.12-.003.121-.004.12-.004.121-.004.12-.005.121-.005.12-.005.12-.005.06-.002.061-.003.12-.006.121-.006.12-.007.121-.007.12-.008.121-.008.12-.008.12-.009.121-.009.12-.01.121-.01.12-.01.121-.01.12-.01.121-.012.12-.012.12-.012.121-.012.12-.013.121-.013.12-.013.121-.014.12-.014.121-.014.12-.014.12-.015.121-.015.12-.016.121-.015.12-.016.121-.016.12-.017.121-.017.12-.017.12-.017.121-.018.12-.018.121-.018.12-.018.121-.019.12-.019.121-.019.12-.019.12-.02.121-.02.12-.02.121-.02.12-.02.121-.022.12-.02.121-.022.12-.022.121-.022.12-.022.12-.022.121-.022.12-.023.121-.023.12-.023.121-.024.12-.024.121-.024.12-.024.12-.024.121-.025.12-.025.121-.025.12-.025.121-.026.12-.026.121-.026.12-.026.12-.027.121-.027.12-.027.121-.028.12-.028.121-.028.12-.029.121-.029.12-.03v-5.287l-.12.06-.12.059-.12.059-.121.058-.12.058-.121.058-.12.056-.121.056-.12.056-.121.055-.12.054-.12.054-.121.053-.12.052-.121.052-.12.051-.121.051-.12.05-.121.05-.12.048-.12.048-.121.047-.12.047-.121.046-.12.045-.121.045-.12.043-.121.044-.12.042-.12.042-.121.041-.12.04-.121.04-.12.04-.121.038-.12.038-.121.037-.12.037-.121.035-.12.035-.12.035-.121.033-.12.033-.121.033-.12.031-.121.031-.12.03-.121.03-.12.029-.12.028-.121.027-.12.027-.121.026-.12.026-.121.025-.12.024-.121.023-.12.023-.12.022-.121.022-.12.02-.121.02-.12.02-.121.02-.12.017-.121.018-.12.017-.12.016-.121.015-.12.016-.121.014-.12.014-.121.012-.12.013-.121.012-.12.01-.12.011-.121.01-.073.006-.048.003-.12.008-.12.008-.121.007-.12.006-.121.006-.12.003-.12.004-.121.003-.12.002-.121.001h-.241l-.12-.002-.121-.003-.12-.003-.12-.005-.121-.005-.12-.007-.121-.007-.12-.008-.121-.01-.12-.01c-.041-.003-.08-.008-.121-.012l-.12-.012-.121-.014-.12-.014-.12-.016-.121-.017-.12-.018-.121-.02-.12-.02-.121-.023-.12-.022-.12-.025-.121-.026-.12-.027-.121-.029-.12-.03-.121-.031-.12-.034a10.577 10.577 0 01-.482-.148l-.12-.04-.121-.044-.12-.044-.121-.048-.12-.048c-.041-.016-.081-.034-.121-.051l-.12-.052-.121-.056-.12-.057a8.993 8.993 0 01-.241-.121c-.04-.021-.081-.042-.12-.064l-.121-.067-.12-.07a8.933 8.933 0 01-.242-.148l-.12-.078-.12-.082a7.436 7.436 0 01-.12-.085l-.121-.088c-.041-.03-.08-.062-.12-.093a8.053 8.053 0 01-.121-.097c-.04-.033-.081-.066-.12-.1a7.171 7.171 0 01-.362-.33l-.12-.12a6.886 6.886 0 01-.362-.401 7.43 7.43 0 01-.602-.832 7.396 7.396 0 01-.482-.913 8.084 8.084 0 01-.482-1.417 10.374 10.374 0 01-.24-1.455 11.726 11.726 0 01.12-3.049 9.515 9.515 0 01.24-1.011 8.688 8.688 0 01.362-.977 7.777 7.777 0 01.602-1.1 7.37 7.37 0 01.843-1.046 7.165 7.165 0 01.362-.345l.12-.106.12-.1a8.06 8.06 0 01.483-.363l.12-.082.12-.078a7.388 7.388 0 01.241-.148l.12-.07.121-.067.12-.064a9.078 9.078 0 01.362-.178c.04-.02.08-.038.12-.056l.12-.052.121-.052.12-.048.121-.047.12-.044.121-.044.12-.04a10.624 10.624 0 01.362-.114l.12-.035.12-.033.121-.031.12-.03.121-.03.12-.027.121-.025.12-.025.12-.023.121-.022c.04-.008.08-.014.12-.02l.121-.02.12-.018.121-.017.12-.016.121-.015.12-.014.12-.012.121-.012.12-.01.121-.01.12-.008.121-.007.12-.007.121-.005.12-.005.121-.003.12-.002.12-.002h.362l.12.002.121.003.12.004.121.004.12.005.12.007.121.006.12.008.121.008.048.003.073.006.12.01.12.01.121.011.12.012.12.012.121.013.12.013.121.014.12.015.121.015.12.016.121.017.12.017.12.018.121.019.12.02.121.02.12.02.121.021.12.022.121.023.12.023.12.024.121.024.12.026.121.026.12.026.121.028.12.028.121.028.12.03.12.03.121.03.12.032.121.032.12.033.121.034.12.034.121.035.12.036.12.036.121.037.12.038.121.038.12.04.121.04.12.04.121.041.12.042.121.043.12.043.12.044.121.045.12.045.121.047.12.046.121.048.12.048.121.049.12.05.12.05.121.05.12.052.121.053.12.053.121.053.12.054.121.055.12.055.12.056.121.057.12.057.121.058.12.058.121.06.12.059.121.06.12.06v-5.291l-.12-.03-.12-.029-.12-.029-.121-.028-.12-.028-.121-.027-.12-.028-.121-.027-.12-.026-.121-.027-.12-.026-.12-.026-.121-.025-.12-.026-.121-.025-.12-.025-.121-.024-.12-.025-.121-.024-.12-.024-.12-.024-.121-.023-.12-.023-.121-.023-.12-.023-.121-.023-.12-.022-.121-.022-.12-.022-.12-.021-.121-.022-.12-.02-.121-.021-.12-.021-.121-.02-.12-.02-.121-.02-.12-.02-.121-.02-.12-.018-.12-.02-.121-.018-.12-.018-.121-.018-.12-.018-.121-.018-.12-.017-.121-.017-.12-.017-.12-.016-.121-.017-.12-.015-.121-.016-.12-.015-.121-.016-.12-.014-.121-.015-.12-.014-.12-.014-.121-.013-.12-.014-.121-.012-.12-.013-.121-.012-.12-.012-.121-.012-.12-.011-.12-.01-.121-.011-.12-.01-.121-.01-.12-.01-.121-.009-.12-.009-.121-.008-.12-.008-.12-.007-.121-.007-.12-.007-.121-.006-.12-.006-.062-.003-.06-.002-.12-.006-.12-.005-.12-.005-.12-.004-.121-.004-.12-.004-.121-.004-.12-.003-.121-.003-.12-.003-.121-.003-.12-.002-.12-.003-.121-.001-.12-.002-.121-.002h-.12l-.121-.001h-.12l-.121-.001h-.361l-.12.002h-.121l-.12.002-.121.002-.12.002-.121.002-.12.003-.12.003-.121.003-.12.004-.121.004-.12.004-.121.005-.12.005-.121.005-.12.006-.12.006-.121.006-.12.007-.121.007-.12.007-.121.008-.12.008-.121.008-.12.01-.121.008-.12.01-.12.01-.121.01-.12.01-.121.012-.12.011-.121.012-.12.013-.121.012-.12.014-.12.013-.121.014-.12.015-.121.014-.12.016-.121.016-.12.016-.121.017-.12.017-.12.017-.121.019-.12.018-.121.02-.12.02-.121.02-.12.02-.121.021-.12.022-.12.022-.121.023-.12.024-.121.023-.12.025-.121.025-.12.026-.121.026-.12.027-.12.028-.121.027-.12.03-.121.029-.12.03-.121.03-.12.032-.121.033-.12.032-.12.034-.121.034-.12.036-.121.035-.12.037-.121.037-.12.039-.121.038-.12.04-.12.04-.121.043-.12.042-.121.044-.12.044-.121.045-.12.046-.121.048-.12.048-.121.05-.12.05-.12.05-.121.054-.12.053-.121.055-.12.056-.121.057-.12.059-.12.06-.121.06-.12.063c-.041.02-.081.043-.121.064l-.12.065-.121.067-.12.069-.121.069a14.155 14.155 0 00-.24.145l-.121.075-.12.077-.121.078-.12.08-.121.083a14.197 14.197 0 00-.241.172l-.12.088a12.694 12.694 0 00-.362.281z"/></symbol><symbol id="maestro-map" viewBox="0 0 200 155.56"><path d="M198.191 100.128V97.73h-.625l-.723 1.646-.719-1.646h-.629v2.397h.445V98.32l.675 1.56h.46l.676-1.564v1.812zm-3.965 0v-1.989h.802v-.404h-2.044v.404h.802v1.989z" fill="#0099df"/><path d="M127.144 110.439H73.066V13.251h54.078z" fill="#6c6bbd"/><path d="M76.53 61.837c0-19.715 9.23-37.276 23.605-48.593A61.538 61.538 0 0061.94.028C27.807.028.14 27.701.14 61.838s27.668 61.808 61.8 61.808a61.538 61.538 0 0038.196-13.215C85.761 99.114 76.53 81.552 76.53 61.837" fill="#eb001b"/><path d="M200.077 61.837c0 34.137-27.668 61.81-61.8 61.81a61.557 61.557 0 01-38.2-13.216c14.378-11.317 23.609-28.879 23.609-48.594s-9.231-37.276-23.61-48.593a61.557 61.557 0 0138.2-13.216c34.133 0 61.801 27.673 61.801 61.81" fill="#0099df"/><path d="M145.377 137.883c.72 0 1.753.138 2.543.448l-1.1 3.364c-.755-.31-1.51-.412-2.233-.412-2.334 0-3.501 1.509-3.501 4.22v9.203h-3.572v-16.41h3.537v1.992c.927-1.442 2.267-2.405 4.326-2.405m-13.196 3.675h-5.835v7.415c0 1.646.581 2.747 2.37 2.747.927 0 2.094-.31 3.155-.928l1.03 3.054c-1.132.79-2.916 1.273-4.46 1.273-4.225 0-5.699-2.268-5.699-6.08v-7.481h-3.332v-3.262h3.332v-4.979h3.604v4.98h5.835zm-45.697 3.501c.38-2.37 1.82-3.985 4.362-3.985 2.298 0 3.776 1.443 4.153 3.985zm12.225 1.442c-.036-5.116-3.195-8.618-7.797-8.618-4.805 0-8.17 3.502-8.17 8.618 0 5.215 3.502 8.614 8.414 8.614 2.472 0 4.735-.617 6.728-2.299l-1.753-2.645c-1.371 1.1-3.124 1.718-4.77 1.718-2.3 0-4.394-1.065-4.909-4.016h12.186c.035-.448.07-.892.07-1.372m15.688-4.016c-.994-.62-3.018-1.41-5.113-1.41-1.957 0-3.124.722-3.124 1.925 0 1.096 1.234 1.407 2.779 1.611l1.682.24c3.572.518 5.733 2.027 5.733 4.912 0 3.124-2.747 5.356-7.482 5.356-2.68 0-5.152-.688-7.109-2.13l1.682-2.782c1.202.927 2.99 1.717 5.462 1.717 2.437 0 3.741-.72 3.741-1.992 0-.924-.927-1.442-2.884-1.714l-1.682-.24c-3.674-.518-5.667-2.165-5.667-4.84 0-3.262 2.68-5.255 6.834-5.255 2.61 0 4.979.586 6.692 1.718zm44.031-1.21c-.735 0-1.414.13-2.047.385-.629.26-1.175.62-1.635 1.084s-.821 1.022-1.084 1.67-.393 1.364-.393 2.142c0 .782.13 1.493.393 2.142s.624 1.206 1.084 1.67 1.006.825 1.635 1.084c.633.26 1.312.386 2.047.386s1.419-.126 2.048-.386a4.908 4.908 0 001.642-1.084 4.997 4.997 0 001.097-1.67c.263-.649.393-1.36.393-2.142 0-.778-.13-1.493-.393-2.141a4.997 4.997 0 00-1.097-1.67 4.908 4.908 0 00-1.642-1.085 5.394 5.394 0 00-2.048-.385m0-3.392c1.274 0 2.452.22 3.537.665a8.585 8.585 0 012.814 1.823 8.347 8.347 0 011.858 2.743c.448 1.057.672 2.204.672 3.442s-.224 2.385-.672 3.443a8.364 8.364 0 01-1.858 2.746c-.79.774-1.73 1.38-2.814 1.824-1.085.44-2.263.66-3.537.66s-2.452-.22-3.536-.66c-1.085-.444-2.016-1.05-2.802-1.824s-1.403-1.693-1.851-2.746c-.448-1.058-.672-2.205-.672-3.443s.224-2.385.672-3.442c.448-1.053 1.065-1.969 1.85-2.743s1.718-1.383 2.803-1.823c1.084-.444 2.263-.665 3.536-.665m-92.802 8.618c0-2.884 1.89-5.254 4.98-5.254 2.95 0 4.943 2.268 4.943 5.254s-1.993 5.25-4.944 5.25c-3.089 0-4.979-2.366-4.979-5.25m13.286 0v-8.205h-3.568v1.992c-1.135-1.477-2.849-2.405-5.183-2.405-4.602 0-8.205 3.604-8.205 8.618 0 5.01 3.603 8.618 8.205 8.618 2.334 0 4.048-.928 5.183-2.405v1.992h3.568zm-20.115 8.205v-10.3c0-3.878-2.472-6.487-6.453-6.523-2.094-.035-4.26.617-5.769 2.92-1.131-1.82-2.92-2.92-5.426-2.92-1.749 0-3.466.515-4.806 2.437v-2.024h-3.568v16.41h3.603v-9.097c0-2.849 1.58-4.362 4.016-4.362 2.37 0 3.572 1.545 3.572 4.327v9.132h3.604v-9.097c0-2.849 1.65-4.362 4.016-4.362 2.44 0 3.607 1.545 3.607 4.327v9.132zM171.155 153.476v.405h.374c.082 0 .153-.02.2-.051.051-.032.079-.087.079-.153s-.028-.118-.079-.15a.337.337 0 00-.2-.05zm.378-.283c.192 0 .342.044.448.13s.157.204.157.354c0 .125-.04.228-.126.31a.624.624 0 01-.358.15l.496.57h-.386l-.46-.567h-.149v.566h-.322v-1.513zm-.099 2.032c.177 0 .342-.032.492-.098a1.252 1.252 0 00.77-1.171c0-.177-.036-.342-.098-.495-.067-.154-.158-.291-.272-.405s-.247-.205-.4-.267c-.15-.067-.315-.099-.492-.099s-.345.032-.499.099a1.209 1.209 0 00-.676.672c-.066.153-.098.318-.098.495s.032.342.098.495c.063.157.154.29.268.405s.251.204.408.27c.154.067.323.099.5.099m0-2.9a1.6 1.6 0 01.644.13 1.62 1.62 0 01.884.868c.086.196.13.409.13.633s-.044.436-.13.632-.204.37-.354.515c-.153.15-.326.267-.53.354a1.6 1.6 0 01-.645.13 1.657 1.657 0 01-1.186-.484c-.15-.145-.268-.318-.354-.515s-.13-.408-.13-.632.044-.437.13-.633a1.6 1.6 0 01.354-.519c.149-.15.326-.267.53-.35.204-.086.42-.13.656-.13" fill="#231f20"/></symbol><symbol id="mastercard-map" viewBox="0 0 200 155.58"><path d="M195.93 153.396v.405h.373c.082 0 .153-.02.204-.051.047-.032.075-.087.075-.153s-.028-.118-.075-.15a.358.358 0 00-.204-.05zm.376-.283c.193 0 .342.044.448.13s.158.204.158.354c0 .125-.04.228-.126.31a.613.613 0 01-.358.15l.495.57h-.385l-.46-.567h-.149v.566h-.322v-1.513zm-.098 2.036c.177 0 .342-.036.491-.102a1.252 1.252 0 00.77-1.171c0-.177-.035-.342-.098-.495-.066-.154-.157-.291-.27-.405s-.248-.205-.402-.271c-.149-.063-.314-.095-.49-.095s-.347.032-.5.095c-.157.066-.295.157-.408.27s-.205.252-.268.406c-.067.153-.098.318-.098.495s.031.342.098.495c.063.157.154.29.268.405s.251.204.408.27c.153.067.322.103.5.103m0-2.904c.231 0 .443.043.648.13a1.645 1.645 0 01.88.868c.086.196.13.409.13.633s-.044.436-.13.632-.204.37-.354.519a1.785 1.785 0 01-.526.35c-.205.086-.417.13-.649.13a1.704 1.704 0 01-1.187-.48c-.149-.15-.267-.322-.353-.519s-.13-.408-.13-.632.043-.437.13-.633a1.6 1.6 0 01.354-.519c.149-.15.326-.267.53-.35.204-.086.42-.13.656-.13m-153.102-5.827c0-2.884 1.89-5.254 4.979-5.254 2.951 0 4.943 2.268 4.943 5.254s-1.992 5.254-4.943 5.254c-3.089 0-4.979-2.37-4.979-5.254m13.286 0v-8.205h-3.568v1.992c-1.132-1.477-2.849-2.404-5.183-2.404-4.602 0-8.21 3.607-8.21 8.617 0 5.014 3.608 8.618 8.21 8.618 2.334 0 4.051-.927 5.183-2.405v1.992h3.568zm120.577 0c0-2.884 1.89-5.254 4.979-5.254 2.955 0 4.943 2.268 4.943 5.254s-1.988 5.254-4.943 5.254c-3.089 0-4.98-2.37-4.98-5.254m13.29 0v-14.795h-3.571v8.582c-1.132-1.477-2.85-2.404-5.183-2.404-4.602 0-8.21 3.607-8.21 8.617 0 5.014 3.608 8.618 8.21 8.618 2.334 0 4.051-.927 5.183-2.405v1.992h3.572zm-89.575-5.423c2.299 0 3.776 1.443 4.154 3.981H96.32c.381-2.37 1.82-3.98 4.362-3.98m.07-3.195c-4.81 0-8.173 3.5-8.173 8.617 0 5.219 3.501 8.618 8.413 8.618 2.472 0 4.736-.617 6.728-2.299l-1.749-2.645c-1.375 1.097-3.128 1.718-4.774 1.718-2.3 0-4.394-1.065-4.908-4.02h12.185c.036-.444.071-.892.071-1.372-.035-5.116-3.195-8.617-7.792-8.617m43.084 8.617c0-2.884 1.89-5.254 4.979-5.254 2.951 0 4.943 2.268 4.943 5.254s-1.992 5.254-4.943 5.254c-3.089 0-4.979-2.37-4.979-5.254m13.286 0v-8.205h-3.568v1.992c-1.136-1.477-2.849-2.404-5.183-2.404-4.602 0-8.21 3.607-8.21 8.617 0 5.014 3.608 8.618 8.21 8.618 2.334 0 4.047-.927 5.183-2.405v1.992h3.568zm-33.437 0c0 4.98 3.466 8.618 8.755 8.618 2.472 0 4.118-.55 5.903-1.957l-1.714-2.884c-1.34.962-2.747 1.477-4.295 1.477-2.849-.035-4.943-2.094-4.943-5.254s2.094-5.218 4.943-5.254c1.548 0 2.955.515 4.295 1.478l1.714-2.884c-1.785-1.407-3.431-1.957-5.903-1.957-5.289 0-8.755 3.638-8.755 8.617m46.004-8.617c-2.059 0-3.399.962-4.326 2.404v-1.992h-3.537v16.41h3.572v-9.199c0-2.715 1.167-4.224 3.501-4.224.723 0 1.478.102 2.232.412l1.1-3.363c-.79-.31-1.819-.448-2.542-.448m-95.65 1.717c-1.718-1.132-4.084-1.717-6.693-1.717-4.158 0-6.834 1.992-6.834 5.253 0 2.677 1.993 4.327 5.663 4.842l1.686.24c1.957.275 2.88.79 2.88 1.717 0 1.269-1.304 1.992-3.74 1.992-2.473 0-4.257-.79-5.46-1.717l-1.68 2.778c1.956 1.442 4.428 2.13 7.104 2.13 4.739 0 7.486-2.232 7.486-5.356 0-2.885-2.162-4.394-5.734-4.908l-1.681-.244c-1.545-.204-2.783-.51-2.783-1.611 0-1.203 1.167-1.922 3.124-1.922 2.095 0 4.123.79 5.117 1.407zm46.039-1.717c-2.06 0-3.4.962-4.323 2.404v-1.992h-3.537v16.41h3.568v-9.199c0-2.715 1.168-4.224 3.502-4.224.723 0 1.477.102 2.232.412l1.1-3.363c-.79-.31-1.82-.448-2.542-.448m-30.451.412h-5.836v-4.979h-3.607v4.98h-3.328v3.26h3.328v7.487c0 3.807 1.478 6.075 5.698 6.075 1.548 0 3.332-.48 4.464-1.27l-1.03-3.057c-1.064.617-2.232.928-3.159.928-1.784 0-2.366-1.1-2.366-2.747v-7.415h5.836zm-53.353 16.41v-10.3c0-3.878-2.471-6.487-6.456-6.522-2.094-.036-4.256.617-5.769 2.92-1.131-1.82-2.915-2.92-5.423-2.92-1.752 0-3.465.514-4.805 2.436v-2.024H10.25v16.41h3.603v-9.097c0-2.849 1.58-4.362 4.02-4.362 2.37 0 3.568 1.545 3.568 4.327v9.132h3.608v-9.097c0-2.849 1.646-4.362 4.016-4.362 2.436 0 3.603 1.545 3.603 4.327v9.132z" fill="#231f20"/><path d="M198.13 100.048V97.65h-.625l-.723 1.646-.72-1.646h-.628v2.397h.444V98.24l.676 1.56h.46l.676-1.564v1.812zm-3.965 0v-1.989h.801v-.404h-2.043v.404h.802v1.989z" fill="#f79410"/><path d="M127.082 110.359H73.004V13.171h54.078z" fill="#ff5f00"/><path d="M76.469 61.757c0-19.715 9.23-37.276 23.605-48.593A61.538 61.538 0 0061.878-.052C27.745-.052.077 27.621.077 61.758s27.668 61.808 61.801 61.808a61.538 61.538 0 0038.196-13.215C85.699 99.034 76.469 81.472 76.469 61.757" fill="#eb001b"/><path d="M200.016 61.757c0 34.137-27.668 61.81-61.801 61.81a61.557 61.557 0 01-38.2-13.216c14.378-11.317 23.61-28.879 23.61-48.594s-9.232-37.276-23.61-48.593a61.557 61.557 0 0138.2-13.216c34.133 0 61.801 27.673 61.801 61.81" fill="#f79e1b"/></symbol><symbol id="visa-map" viewBox="0 0 1000.046 323.653"><g fill="#00579f"><path d="M433.352 318.984h-81.01l50.67-313.305h81.006zM727.023 13.339c-15.978-6.34-41.322-13.34-72.66-13.34-80 0-136.336 42.661-136.682 103.653-.664 45 40.335 69.994 71 84.998 31.341 15.332 41.995 25.34 41.995 39.006-.319 20.989-25.326 30.664-48.65 30.664-32.343 0-49.673-4.988-76.009-16.666l-10.667-5.005-11.337 70.33c19 8.656 54.006 16.337 90.35 16.674 85.002 0 140.34-42 140.996-106.997.324-35.666-21.326-62.994-68-85.325-28.334-14.336-45.686-24.002-45.686-38.67.332-13.334 14.677-26.991 46.661-26.991 26.336-.67 45.686 5.661 60.345 11.996l7.327 3.327 11.017-67.654zm107.671 194.652c6.671-17.999 32.343-87.66 32.343-87.66-.337.669 6.658-18.331 10.658-29.995l5.662 26.996s15.34 74.995 18.672 90.66h-67.335zM934.69 5.68h-62.66c-19.323 0-34.004 5.662-42.341 25.995L709.357 318.98h85.002s13.994-38.669 17.002-46.997h104.011c2.326 11 9.666 46.997 9.666 46.997h75.008L934.691 5.68zm-650.012 0l-79.336 213.643-8.67-43.33C182.006 125.997 136.005 71.677 84.67 44.667l72.669 273.985h85.667L370.34 5.679h-85.662z"/><path d="M131.672 5.68H1.333L0 12.01c101.672 25.999 169.008 88.67 196.673 163.997L168.339 32.015c-4.665-20.01-19-25.676-36.667-26.336z"/></g></symbol><use href="#amex-map" xlink:href="#amex-map" x="75" y="50.124" width="100" height="99.752"/><view id="amex" viewBox="75 50.124 100 99.752"/><text x="125" y="166">amex</text><use href="#cb-map" xlink:href="#cb-map" x="250" y="65.47399999999999" width="100" height="69.052"/><view id="cb" viewBox="250 65.47399999999999 100 69.052"/><text x="300" y="166">cb</text><use href="#diners-map" xlink:href="#diners-map" x="425" y="60.3775" width="100" height="79.245"/><view id="diners" viewBox="425 60.3775 100 79.245"/><text x="475" y="166">diners</text><use href="#jcb-map" xlink:href="#jcb-map" x="600" y="61.48" width="100" height="77.04"/><view id="jcb" viewBox="600 61.48 100 77.04"/><text x="650" y="166">jcb</text><use href="#maestro-map" xlink:href="#maestro-map" x="775" y="61.11" width="100" height="77.78"/><view id="maestro" viewBox="775 61.11 100 77.78"/><text x="825" y="166">maestro</text><use href="#mastercard-map" xlink:href="#mastercard-map" x="75" y="202.105" width="100" height="77.79"/><view id="mastercard" viewBox="75 202.105 100 77.79"/><text x="125" y="307">mastercard</text><use href="#visa-map" xlink:href="#visa-map" x="250" y="224.81799999999998" width="100" height="32.364"/><view id="visa" viewBox="250 224.81799999999998 100 32.364"/><text x="300" y="307">visa</text></svg>
